<?xml version="1.0" encoding="UTF-8"?>
<!DOCTYPE svg PUBLIC "-//W3C//DTD SVG 1.0//EN" "http://www.w3.org/TR/2001/REC-SVG-20010904/DTD/svg10.dtd">
<!-- Creator: CorelDRAW -->
<svg xmlns="http://www.w3.org/2000/svg" xml:space="preserve" width="100%" height="100%" version="1.0" style="shape-rendering:geometricPrecision; text-rendering:geometricPrecision; image-rendering:optimizeQuality; fill-rule:evenodd; clip-rule:evenodd"
viewBox="0 0 1419.88 1029.08"
 xmlns:xlink="http://www.w3.org/1999/xlink"
 xmlns:xodm="http://www.corel.com/coreldraw/odm/2003">
 <defs>
  <style type="text/css">
   <![CDATA[
    .fil2 {fill:none}
    .fil5 {fill:#26A6FE}
    .fil0 {fill:#FEC334}
    .fil4 {fill:black;fill-rule:nonzero}
    .fil1 {fill:url(#id1)}
    .fil3 {fill:url(#id2)}
   ]]>
  </style>
   <clipPath id="id0">
    <path d="M78.33 0l1263.22 0c43.08,0 78.33,35.25 78.33,78.33l0 872.42c0,43.08 -35.25,78.33 -78.33,78.33l-1263.22 0c-43.08,0 -78.33,-35.25 -78.33,-78.33l0 -872.42c0,-43.08 35.25,-78.33 78.33,-78.33z"/>
   </clipPath>
  <linearGradient id="id1" gradientUnits="userSpaceOnUse" x1="709.94" y1="962.76" x2="709.94" y2="66.32">
   <stop offset="0" style="stop-opacity:1; stop-color:#D8ECFE"/>
   <stop offset="1" style="stop-opacity:1; stop-color:white"/>
  </linearGradient>
  <linearGradient id="id2" gradientUnits="userSpaceOnUse" x1="612.38" y1="234.84" x2="818.32" y2="234.84">
   <stop offset="0" style="stop-opacity:1; stop-color:#FEDE53"/>
   <stop offset="1" style="stop-opacity:1; stop-color:#FEAB19"/>
  </linearGradient>
 </defs>
 <g id="Layer_x0020_1">
  <metadata id="CorelCorpID_0Corel-Layer"/>
  <path class="fil0" d="M78.33 0l1263.22 0c43.08,0 78.33,35.25 78.33,78.33l0 872.42c0,43.08 -35.25,78.33 -78.33,78.33l-1263.22 0c-43.08,0 -78.33,-35.25 -78.33,-78.33l0 -872.42c0,-43.08 35.25,-78.33 78.33,-78.33z"/>
  <g style="clip-path:url(#id0)">
   <g id="_2815320131344">
    <path id="_1" class="fil1" d="M138.63 66.32l1142.62 0c41.29,0 75.07,33.78 75.07,75.07l0 746.3c0,41.29 -33.78,75.07 -75.07,75.07l-1142.62 0c-41.29,0 -75.07,-33.78 -75.07,-75.07l0 -746.3c0,-41.29 33.78,-75.07 75.07,-75.07z"/>
   </g>
  </g>
  <path class="fil2" d="M78.33 0l1263.22 0c43.08,0 78.33,35.25 78.33,78.33l0 872.42c0,43.08 -35.25,78.33 -78.33,78.33l-1263.22 0c-43.08,0 -78.33,-35.25 -78.33,-78.33l0 -872.42c0,-43.08 35.25,-78.33 78.33,-78.33z"/>
  <rect class="fil3" x="612.38" y="204.13" width="205.94" height="61.42" rx="668.54" ry="300"/>
  <path class="fil4" d="M173.23 540.3c-11.25,0 -20.85,-2.19 -28.79,-6.56 -7.9,-4.38 -13.94,-10.77 -18.12,-19.14 -4.21,-8.37 -6.28,-18.51 -6.28,-30.37l0 -41.28c0,-11.94 2.07,-22.07 6.28,-30.4 4.18,-8.37 10.22,-14.73 18.12,-19.14 7.94,-4.42 17.54,-6.64 28.79,-6.64 9.28,0 17.56,2.05 24.81,6.11 7.25,4.06 13.26,9.96 18.02,17.69 4.73,7.73 8.04,17.09 9.83,28.14l0 0 -28.71 0 0 0c-1.07,-5.05 -2.72,-9.28 -5,-12.78 -2.25,-3.46 -4.98,-6.15 -8.18,-8.02 -3.22,-1.87 -6.8,-2.79 -10.77,-2.79 -7.77,0 -13.77,2.44 -18.05,7.31 -4.29,4.84 -6.43,11.69 -6.43,20.52l0 41.28c0,8.83 2.14,15.64 6.43,20.48 4.28,4.84 10.28,7.24 18.05,7.24 6.07,0 11.18,-2.05 15.35,-6.15 4.19,-4.09 7.05,-9.92 8.6,-17.44l0 0 28.71 0 0 0c-1.86,10.98 -5.21,20.34 -9.94,28.11 -4.76,7.73 -10.73,13.66 -17.95,17.72 -7.21,4.07 -15.49,6.11 -24.77,6.11z"/>
  <path id="_1_0" class="fil4" d="M251.19 538.75l0 -150.43 27.68 0 0 150.43 -27.68 0zm10.01 0l0 -27.3 88.47 0 0 27.3 -88.47 0zm0 -61.05l0 -27.3 77.35 0 0 27.3 -77.35 0zm0 -62.05l0 -27.33 88.47 0 0 27.33 -88.47 0z"/>
  <path id="_2" class="fil4" d="M385.98 478.23l0 -27.3 51.17 0c4.32,0 7.77,-1.62 10.36,-4.87 2.58,-3.25 3.93,-7.52 4,-12.82l0 0c0,-5.33 -1.31,-9.61 -3.9,-12.85 -2.59,-3.22 -6.11,-4.84 -10.46,-4.84l-51.17 0 0 -27.33 53.38 0c8.15,0 15.3,1.87 21.41,5.61 6.07,3.71 10.83,8.93 14.18,15.71 3.38,6.75 5.07,14.66 5.07,23.7l0 0c0,9.04 -1.73,16.91 -5.11,23.69 -3.41,6.75 -8.14,11.97 -14.21,15.72 -6.08,3.7 -13.19,5.58 -21.34,5.58l-53.38 0zm-11.02 60.52l0 -150.53 27.68 0 0 150.53 -27.68 0zm77.65 0l-35.68 -65.19 29.61 -4.73 39.63 69.92 -33.56 0z"/>
  <path id="_3" class="fil4" d="M529.75 538.75l0 -138.1 27.72 0 0 138.1 -27.72 0zm-40.03 -123.1l0 -27.33 107.78 0 0 27.33 -107.78 0z"/>
  <polygon id="_4" class="fil4" points="640.37,388.32 640.37,538.75 611.65,538.75 611.65,388.32 "/>
  <path id="_5" class="fil4" d="M670.7 538.75l0 -150.43 27.68 0 0 150.43 -27.68 0zm10.11 -59.68l0 -27.33 75.31 0 0 27.33 -75.31 0zm0 -63.42l0 -27.33 86.45 0 0 27.33 -86.45 0z"/>
  <polygon id="_6" class="fil4" points="815.18,388.32 815.18,538.75 786.46,538.75 786.46,388.32 "/>
  <path id="_7" class="fil4" d="M895.65 540.3c-11.25,0 -20.84,-2.19 -28.78,-6.56 -7.91,-4.38 -13.95,-10.77 -18.12,-19.14 -4.21,-8.37 -6.29,-18.51 -6.29,-30.37l0 -41.28c0,-11.94 2.08,-22.07 6.29,-30.4 4.17,-8.37 10.21,-14.73 18.12,-19.14 7.94,-4.42 17.53,-6.64 28.78,-6.64 9.29,0 17.57,2.05 24.82,6.11 7.24,4.06 13.25,9.96 18.01,17.69 4.73,7.73 8.05,17.09 9.84,28.14l0 0 -28.71 0 0 0c-1.08,-5.05 -2.73,-9.28 -5,-12.78 -2.25,-3.46 -4.98,-6.15 -8.19,-8.02 -3.21,-1.87 -6.8,-2.79 -10.77,-2.79 -7.77,0 -13.77,2.44 -18.05,7.31 -4.28,4.84 -6.42,11.69 -6.42,20.52l0 41.28c0,8.83 2.14,15.64 6.42,20.48 4.28,4.84 10.28,7.24 18.05,7.24 6.07,0 11.19,-2.05 15.36,-6.15 4.18,-4.09 7.05,-9.92 8.6,-17.44l0 0 28.71 0 0 0c-1.86,10.98 -5.21,20.34 -9.94,28.11 -4.76,7.73 -10.74,13.66 -17.95,17.72 -7.21,4.07 -15.49,6.11 -24.78,6.11z"/>
  <path id="_8" class="fil4" d="M953.39 538.75l56.23 -150.43 17.56 0 56.22 150.43 -29.82 0 -35.2 -102.72 -35.17 102.72 -29.82 0zm26.99 -24.12l0 -27.29 77.34 0 0 27.29 -77.34 0z"/>
  <path id="_9" class="fil4" d="M1117.39 538.75l0 -138.1 27.72 0 0 138.1 -27.72 0zm-40.03 -123.1l0 -27.33 107.79 0 0 27.33 -107.79 0z"/>
  <path id="_10" class="fil4" d="M1201.33 538.75l0 -150.43 27.68 0 0 150.43 -27.68 0zm10.01 0l0 -27.3 88.46 0 0 27.3 -88.46 0zm0 -61.05l0 -27.3 77.35 0 0 27.3 -77.35 0zm0 -62.05l0 -27.33 88.46 0 0 27.33 -88.46 0z"/>
  <rect class="fil5" x="449.8" y="661.52" width="531.1" height="61.42" rx="1724.12" ry="300"/>
  <rect class="fil5" x="316.12" y="802.43" width="440.78" height="61.42" rx="1430.9" ry="300"/>
  <rect class="fil5" x="796.64" y="802.43" width="133.68" height="61.42" rx="433.96" ry="300"/>
 </g>
</svg>
