<?xml version="1.0" encoding="UTF-8"?>
<!DOCTYPE svg PUBLIC "-//W3C//DTD SVG 1.0//EN" "http://www.w3.org/TR/2001/REC-SVG-20010904/DTD/svg10.dtd">
<!-- Creator: CorelDRAW -->
<svg xmlns="http://www.w3.org/2000/svg" xml:space="preserve" width="100%" height="100%" version="1.0" style="shape-rendering:geometricPrecision; text-rendering:geometricPrecision; image-rendering:optimizeQuality; fill-rule:evenodd; clip-rule:evenodd"
viewBox="0 0 11901.46 4063.33"
 xmlns:xlink="http://www.w3.org/1999/xlink"
 xmlns:xodm="http://www.corel.com/coreldraw/odm/2003">
 <defs>
  <style type="text/css">
   <![CDATA[
    .fil0 {fill:url(#id0)}
   ]]>
  </style>
  <linearGradient id="id0" gradientUnits="userSpaceOnUse" x1="0.01" y1="2031.67" x2="11901.46" y2="2031.67">
   <stop offset="0" style="stop-opacity:1; stop-color:#1494C7"/>
   <stop offset="0.45098" style="stop-opacity:1; stop-color:#5856A0"/>
   <stop offset="0.729412" style="stop-opacity:1; stop-color:#6E4E99"/>
   <stop offset="1" style="stop-opacity:1; stop-color:#C02565"/>
  </linearGradient>
 </defs>
 <g id="Layer_x0020_1">
  <metadata id="CorelCorpID_0Corel-Layer"/>
  <path class="fil0" d="M11276.22 1354.58l0.04 2385.15c0,167.43 139.95,301.91 295.56,301.91 167.25,0 296.55,-134.48 296.55,-301.91l0.03 -2385.15c0,-166.98 -134.23,-300.76 -296.58,-300.76 -167.25,0 -295.6,133.78 -295.6,300.76zm-10697.69 1722.39c0,-267.78 245.03,-419.07 584.39,-419.07 250.87,0 429.78,33.93 674.81,95.01l0.01 619.07c-55.45,44.35 -261.59,172.9 -646.63,172.9 -395.71,0 -612.58,-167.25 -612.58,-467.91zm-178.91 -1907.33c-149.75,67.28 -195.43,178.71 -195.43,274 0.01,172.6 162.39,300.84 407.39,222.47 156.58,-55.62 380.2,-122.32 607.73,-122.32 434.69,0 618.4,161.3 618.42,540.72l0.01 183.38c-256.71,-60.86 -445.38,-93.82 -707.88,-93.82 -752.59,0 -1106.54,410.71 -1129.86,874.91l0.02 104.13c24.29,519.34 402.54,910.22 1140.55,910.22 580.48,0 1003.28,-206.96 1159.99,-312.53 83.49,-56.24 105.97,-116.59 105.97,-216.93l0.05 -1449.36c0.03,-753.17 -440.53,-1081.35 -1154.2,-1081.35 -339.33,0 -690.38,88.89 -852.76,166.48zm5767.91 1907.33c0.02,-267.59 245.06,-419.07 585.35,-419.07 250.93,0 428.8,33.93 674.83,95.01l0 619.07c-56.38,44.35 -262.54,172.9 -647.56,172.9 -394.8,0 -612.64,-167.25 -612.62,-467.91zm-177.9 -1907.33c-150.73,67.28 -195.46,178.71 -195.46,274 0,172.6 161.39,300.84 407.39,222.47 155.61,-55.41 378.24,-122.12 606.77,-122.12 434.63,0 619.38,161.1 619.38,540.52l0 183.38c-256.69,-60.86 -447.29,-93.82 -708.84,-93.82 -779.82,0 -1130.89,440.47 -1130.86,924.8 0.04,546.13 378.24,964.46 1142.54,964.46 579.5,0 1003.28,-206.96 1159.97,-312.53 83.48,-56.24 105.02,-116.59 105.02,-216.93l0 -1449.36c0,-753.17 -439.49,-1081.35 -1153.2,-1081.35 -340.25,0 -691.34,88.89 -852.71,166.48zm2518.33 139.52c-83.62,56.21 -117.66,112.11 -117.66,228.4l0.03 2190.59c0,167.11 140.02,301.63 296.55,301.62 166.26,-0.01 294.64,-134.51 294.64,-301.62l0 -2000.29c127.38,-78.47 389.89,-156.26 663.11,-156.26 346.15,0 647.56,189.5 647.56,635.43l0 1521.12c0,167.11 138.08,301.63 294.61,301.62 173.1,-0.01 295.62,-134.51 295.62,-301.62l0 -1548.85c0,-752.87 -412.29,-1176.14 -1220.29,-1176.14 -585.36,0 -992.79,184.44 -1154.17,306zm-5160.2 1533.09c-14.26,-173.08 -8.94,-501.32 0,-651.95 24.14,-406.72 223.63,-618.7 646.61,-618.7 290.72,0 568.82,100.26 685.51,172.88l0 1549.02c-110.87,84.13 -400.65,200.69 -640.78,200.69 -428.77,0 -656.02,-223.14 -691.34,-651.94zm1332.12 -2513.78l0 835.83c-183.76,-83.14 -461.85,-161.14 -730.25,-161.14 -718.55,0 -1131.8,428.54 -1192.07,1120.14 -17.52,201 -17.24,596.5 0,791.7 60.55,685.55 518.26,1148.33 1270.85,1148.33 540.6,0 991.76,-239.89 1136.65,-346.15 89.5,-60.88 106.01,-122.73 106.01,-222.99l0 -3165.72c0,-166.86 -128.38,-300.92 -295.63,-300.92 -161.39,0 -295.56,134.06 -295.56,300.92zm6557.44 0.78c0,183.27 140.02,340.03 334.5,340.03 184.79,0 329.64,-156.76 329.64,-340.03 0,-184.65 -144.92,-329.25 -329.64,-329.25 -194.48,0 -334.5,144.6 -334.5,329.25z"/>
 </g>
</svg>
