<?xml version="1.0" encoding="UTF-8"?>
<!DOCTYPE svg PUBLIC "-//W3C//DTD SVG 1.1//EN" "http://www.w3.org/Graphics/SVG/1.1/DTD/svg11.dtd">
<!-- Creator: CorelDRAW -->
<svg xmlns="http://www.w3.org/2000/svg" xml:space="preserve" width="100%" height="100%" style="shape-rendering:geometricPrecision; text-rendering:geometricPrecision; image-rendering:optimizeQuality; fill-rule:evenodd; clip-rule:evenodd"
viewBox="0 0 289490 33339.8"
 xmlns:xlink="http://www.w3.org/1999/xlink">
 <defs>
  <style type="text/css">
   <![CDATA[
    .fil0 {fill:none}
    .fil1 {fill:#1E1F20}
    .fil2 {fill:#1F1A17;fill-rule:nonzero}
    .fil3 {fill:#838281;fill-rule:nonzero}
   ]]>
  </style>
 </defs>
 <g id="Layer_x0020_1">
  <metadata id="CorelCorpID_0Corel-Layer"/>
  <g id="_73084216">
   <path id="_73084168" class="fil0" d="M26548.8 26416.5c2585.04,-2583.86 4038.19,-6065.35 4038.19,-9746.46 0,-3681.5 -1453.15,-7162.6 -4038.19,-9746.46 -2608.27,-2606.69 -6104.72,-4040.94 -9765.35,-4040.94 -3661.02,0 -7157.09,1434.25 -9765.35,4040.94 -2585.04,2583.46 -4038.19,6064.96 -4038.19,9746.46 0,3681.1 1453.15,7162.6 4038.19,9746.46 2608.27,2606.3 6104.33,4040.16 9765.35,4040.16 3660.63,0 7157.09,-1433.86 9765.35,-4040.16z"/>
   <path id="_73084480" class="fil1" d="M26548.8 26420.1c-2475.2,2473.62 -5750.79,3888.98 -9207.09,4027.17l0 -1596.85c0,-283.465 -231.89,-514.961 -514.961,-514.961l-73.2283 0c-283.465,0 -514.567,231.496 -514.567,514.961l0 1596.85c-3461.42,-135.039 -6742.52,-1550 -9220.87,-4027.17 -2445.28,-2444.09 -3875.98,-5692.13 -4023.62,-9152.36l1495.28 0c283.465,0 514.961,-231.89 514.961,-515.354l0 -73.2283c0,-283.465 -231.496,-514.567 -514.961,-514.567l-1497.24 0c127.559,-3492.13 1560.24,-6773.23 4025.59,-9237.01 2478.74,-2477.56 5761.02,-3892.91 9223.23,-4027.56l0 1205.12c0,283.465 231.102,514.961 514.567,514.961l73.2283 0c283.465,0 514.961,-231.496 514.961,-514.961l0 -1204.72c3455.51,138.583 6729.92,1553.94 9204.72,4027.17 2464.96,2463.78 3898.03,5744.88 4025.59,9237.01l-1712.6 0c-283.465,0 -514.961,231.102 -514.961,514.567l0 73.2283c0,283.465 231.496,515.354 514.961,515.354l1710.63 0c-147.244,3460.24 -1578.35,6708.27 -4023.62,9152.36zm6287.8 -10255.5l-995.276 0c-128.346,-3837.01 -1698.82,-7444.09 -4405.91,-10150 -2711.42,-2709.84 -6302.76,-4257.87 -10091.3,-4397.64l0 -1102.36c0,-283.071 -231.496,-514.567 -514.961,-514.567l-73.2283 0c-283.465,0 -514.567,231.496 -514.567,514.567l0 1101.57c-3795.28,135.433 -7393.7,1684.65 -10109.8,4398.43 -2707.09,2705.91 -4277.56,6312.99 -4405.91,10150l-1210.24 0c-283.465,0 -515.354,231.102 -515.354,514.567l0 73.2283c0,283.465 231.89,515.354 515.354,515.354l1212.2 0c148.425,3805.12 1716.54,7379.13 4403.94,10065 2715.35,2713.78 6312.99,4262.6 10107.5,4398.43l0 1094.09c0,283.071 231.102,514.961 514.567,514.961l73.2283 0c283.071,0 514.961,-231.89 514.961,-514.961l0 -1094.49c3788.98,-138.976 7381.5,-1687.8 10093.7,-4398.03 2687.4,-2685.83 4255.51,-6259.84 4403.54,-10065l997.638 0c283.071,0 514.567,-231.89 514.567,-515.354l0 -73.2283c0,-283.465 -231.496,-514.567 -514.567,-514.567z"/>
   <polygon id="_73084072" class="fil2" points="21047.6,27169.7 12828.7,27169.7 12828.7,24147.2 15285,24147.2 15285,14202.4 12828.7,14202.4 12828.7,11165.4 18651.6,11165.4 18651.6,24147.2 21047.6,24147.2 "/>
   <path id="_73084192" class="fil2" d="M16826 9796.06c-544.094,0 -1014.57,-200.394 -1398.82,-594.882 -382.677,-393.307 -576.772,-868.11 -576.772,-1410.63 0,-542.913 194.094,-1017.72 576.772,-1411.02 384.252,-394.488 855.118,-594.488 1398.82,-594.488 562.992,0 1043.31,194.488 1427.17,578.346 383.858,383.071 578.346,863.78 578.346,1427.17 0,543.307 -199.606,1018.11 -593.307,1411.81 -393.701,393.701 -868.898,593.701 -1412.2,593.701z"/>
  </g>
  <path class="fil2" d="M46209.4 8003.15c-544.094,0 -1014.57,-200 -1399.21,-594.488 -382.283,-393.307 -576.378,-868.504 -576.378,-1411.02 0,-542.52 194.094,-1017.32 576.378,-1411.02 384.646,-394.094 855.118,-594.094 1399.21,-594.094 562.992,0 1042.91,194.488 1427.56,578.346 383.071,383.071 577.953,863.386 577.953,1426.77 0,543.701 -199.606,1018.5 -593.701,1412.6 -393.307,393.307 -868.898,592.913 -1411.81,592.913zm4221.65 19166.9l-8218.9 0 0 -3022.44 2455.91 0 0 -9945.28 -2455.91 0 0 -3037.4 5822.83 0 0 12982.7 2396.06 0 0 3022.44z"/>
  <path class="fil2" d="M70664.2 27170.1l-6002.76 0 0 -10525.6c0,-957.48 -136.22,-1648.43 -404.331,-2052.36 -260.63,-393.307 -682.283,-584.252 -1288.58,-584.252 -1327.17,0 -2843.31,661.811 -4508.66,1967.72l0 8172.05 2710.63 0 0 3022.44 -8802.76 0 0 -3022.44 2770.08 0 0 -9945.28 -2770.08 0 0 -3037.4 6092.13 0 0 1775.2c1863.78,-1317.72 3646.85,-1985.04 5302.36,-1985.04 1444.49,0 2530.31,455.512 3227.56,1354.72 689.764,888.189 1038.98,2281.5 1038.98,4139.76l0 7698.03 2635.43 0 0 3022.44z"/>
  <path class="fil2" d="M80656.3 13857.9c-916.535,0 -1745.28,246.85 -2462.99,733.465 -721.26,488.583 -1298.43,1146.46 -1715.75,1956.69 -417.323,810.63 -629.134,1689.37 -629.134,2611.81 0,990.945 216.142,1897.24 642.913,2692.13 425.984,793.701 1014.57,1426.77 1749.61,1881.1 733.465,453.937 1565.75,683.858 2475.59,683.858 926.378,0 1772.83,-249.213 2516.14,-741.732 746.063,-493.701 1340.16,-1162.2 1766.93,-1986.22 427.165,-825.591 644.094,-1722.05 644.094,-2663.78 0,-950.787 -216.142,-1831.1 -642.913,-2616.54 -425.984,-783.858 -1024.02,-1411.42 -1777.95,-1865.75 -754.331,-454.724 -1617.72,-685.039 -2566.54,-685.039zm-524.016 13581.9c-1535.43,0 -2911.81,-367.717 -4090.55,-1090.55 -1177.95,-722.835 -2106.3,-1720.08 -2758.66,-2964.57 -651.181,-1241.73 -981.496,-2633.46 -981.496,-4135.04 0,-1531.89 350.787,-2963.78 1041.34,-4255.91 692.126,-1291.34 1662.2,-2334.25 2885.43,-3096.85 1223.23,-764.173 2567.32,-1151.57 3993.31,-1151.57 1032.28,0 2025.59,210.236 2952.36,625.984 842.913,377.559 1672.44,959.843 2469.69,1731.5l0 -5773.23 -3039.76 0 0 -2993.31 6376.77 0 0 19811 2845.28 0 0 3022.83 -6182.28 0 0 -2105.12c-1550,1575.98 -3402.76,2374.8 -5511.42,2374.8z"/>
  <path class="fil2" d="M97460.6 8003.15c-544.094,0 -1014.57,-200 -1399.21,-594.488 -383.071,-393.307 -576.772,-867.717 -576.772,-1411.02 0,-542.52 193.701,-1017.32 576.772,-1411.02 384.646,-394.094 855.118,-594.094 1399.21,-594.094 562.992,0 1042.91,194.488 1426.77,578.346 384.252,383.465 578.346,863.78 578.346,1426.77 0,543.307 -199.213,1018.11 -593.307,1412.6 -393.307,393.307 -868.898,592.913 -1411.81,592.913zm4221.65 19166.9l-8218.9 0 0 -3022.44 2455.91 0 0 -9945.28 -2455.91 0 0 -3037.4 5822.44 0 0 12982.7 2396.46 0 0 3022.44z"/>
  <path class="fil2" d="M110475 19742.5c-781.102,0 -1464.57,248.819 -2031.1,738.583 -568.504,492.52 -844.488,1093.7 -844.488,1838.19 0,717.323 241.339,1295.67 737.008,1767.32 490.945,468.11 1135.04,704.724 1914.57,704.724 1458.66,0 2849.21,-614.173 4133.86,-1825.59l0 -1718.5c-1300.39,-998.425 -2615.35,-1504.72 -3909.84,-1504.72zm-643.307 7697.24c-987.402,0 -1903.54,-232.677 -2723.62,-691.339 -819.291,-457.874 -1484.65,-1080.31 -1979.13,-1848.82 -495.669,-771.654 -746.85,-1639.76 -746.85,-2580.31 0,-1011.42 277.559,-1925.59 824.803,-2718.9 545.276,-790.157 1291.34,-1407.09 2217.72,-1834.65 922.441,-425.591 1862.99,-641.732 2796.46,-641.732 1476.77,0 2876.38,415.354 4163.78,1233.86l0 -1443.7c0,-1185.83 -248.819,-2040.55 -740.551,-2542.52 -490.945,-500 -1320.47,-753.15 -2464.57,-753.15 -812.992,0 -1499.21,147.638 -2040.94,440.157 -540.157,292.126 -994.094,740.945 -1348.82,1336.61l-50 85.0394 -3228.74 -798.819 81.1024 -151.575c678.74,-1265.35 1608.66,-2223.23 2764.96,-2847.24 1152.76,-622.047 2539.76,-937.402 4121.65,-937.402 2132.28,0 3718.11,496.85 4712.99,1475.98 995.276,980.709 1500,2538.19 1500,4632.28l0 7293.7 2635.43 0 0 3022.83 -5627.95 0 0 -1754.72c-1459.84,1343.7 -3095.67,2024.41 -4867.72,2024.41z"/>
  <path class="fil2" d="M129616 27439.8c-748.819,0 -1494.88,-110.63 -2217.32,-327.953 -624.803,-187.402 -1167.32,-418.504 -1616.93,-687.008l0 745.276 -3022.83 0 0 -5657.87 3022.83 0 0 672.835c138.583,692.52 544.882,1278.74 1205.12,1714.96 667.717,442.126 1456.69,666.929 2344.49,666.929 978.346,0 1755.51,-172.835 2311.42,-512.205 540.945,-331.496 803.937,-811.417 803.937,-1465.75 0,-460.63 -202.362,-796.85 -619.685,-1028.74 -444.488,-246.063 -1362.99,-506.299 -2730.31,-772.047l-1605.12 -344.488c-1605.91,-323.228 -2803.54,-890.157 -3558.27,-1686.22 -759.055,-799.606 -1144.88,-1833.46 -1144.88,-3071.65 0,-1004.72 284.646,-1875.98 844.882,-2590.55 555.906,-709.055 1277.17,-1249.61 2143.31,-1605.51 860.236,-354.724 1758.66,-534.646 2670.87,-534.646 1428.35,0 2661.42,266.535 3670.08,791.732l0 -581.89 2962.99 0 0 5492.91 -2962.99 0 0 -1049.61c-865.748,-1220.87 -2059.84,-1840.16 -3549.61,-1840.16 -787.008,0 -1437.01,173.228 -1930.71,515.354 -485.039,336.22 -721.26,755.512 -721.26,1282.68 0,468.504 175.591,825.197 537.008,1089.76 375.197,275.984 1249.61,524.803 2600,739.764l2085.83 405.118c3161.02,579.528 4765.35,2160.24 4765.35,4698.03 0,1484.65 -584.646,2693.7 -1736.22,3594.49 -1141.73,893.307 -2673.62,1346.46 -4551.97,1346.46z"/>
  <path class="fil2" d="M144428 27439.8c-1331.89,0 -2308.27,-345.276 -2901.18,-1026.77 -587.795,-675.984 -886.22,-1836.61 -886.22,-3449.61l0 -8761.02 -2051.57 0 0 -3037.4 2051.57 0 0 -2306.3 3367.32 -3074.02 0 5380.31 2875.2 0 0 3037.4 -2875.2 0 0 8116.93c0,1028.35 136.614,1433.46 250.787,1590.94 159.843,220.472 435.433,327.165 842.52,327.165 531.89,0 1071.65,-93.3071 1604.33,-277.165l177.559 -61.4173 0 3088.19 -96.4567 27.9528c-966.929,281.89 -1760.24,424.803 -2358.66,424.803z"/>
  <path class="fil2" d="M155961 19742.5c-781.496,0 -1464.96,248.819 -2031.1,738.583 -568.504,492.52 -845.276,1093.7 -845.276,1838.19 0,707.874 248.425,1302.36 737.008,1767.32 491.732,468.11 1135.04,704.724 1914.57,704.724 1459.06,0 2849.21,-614.173 4134.25,-1825.59l0 -1718.5c-1300.39,-998.425 -2615.35,-1504.72 -3909.45,-1504.72zm-643.701 7697.24c-987.008,0 -1903.94,-232.677 -2723.62,-691.339 -818.898,-457.874 -1485.04,-1079.92 -1978.74,-1848.82 -496.063,-771.654 -747.244,-1639.76 -747.244,-2580.31 0,-1011.42 277.559,-1925.98 824.803,-2718.9 545.669,-790.157 1291.34,-1407.09 2217.72,-1834.65 922.047,-425.591 1862.99,-641.732 2796.06,-641.732 1477.17,0 2876.77,415.354 4164.17,1233.86l0 -1443.7c0,-1185.83 -249.606,-2040.55 -740.157,-2542.52 -490.945,-500 -1320.47,-753.15 -2465.75,-753.15 -812.205,0 -1498.43,147.638 -2040.16,440.157 -540.157,292.126 -993.701,740.945 -1348.82,1336.61l-50.7874 85.0394 -3227.56 -798.819 81.1024 -151.575c677.559,-1265.35 1607.87,-2223.23 2764.17,-2847.24 1152.76,-622.047 2539.37,-937.402 4121.65,-937.402 2132.68,0 3718.9,496.85 4713.39,1475.98 995.276,980.709 1499.61,2538.19 1499.61,4632.28l0 7293.7 2635.43 0 0 3022.83 -5627.95 0 0 -1754.72c-1459.45,1343.7 -3095.28,2024.41 -4867.32,2024.41z"/>
  <path class="fil2" d="M173753 27439.8c-1331.89,0 -2308.27,-345.276 -2900.39,-1026.77 -588.583,-675.984 -886.614,-1836.61 -886.614,-3449.61l0 -8761.02 -2051.57 0 0 -3037.4 2051.57 0 0 -2306.3 3366.93 -3074.02 0 5380.31 2875.2 0 0 3037.4 -2875.2 0 0 8116.93c0,1028.35 137.008,1433.46 251.575,1590.94 159.055,220.472 434.646,327.165 842.52,327.165 531.496,0 1071.26,-93.3071 1603.15,-277.165l177.953 -61.4173 0 3088.19 -96.8504 27.9528c-966.142,281.89 -1760.24,424.803 -2358.27,424.803z"/>
  <path class="fil3" d="M187633 27046.5c-1135.04,0 -2037.4,-334.646 -2706.69,-1003.94 -669.685,-664.567 -1004.33,-1736.61 -1004.33,-3201.57l0 -9337.8 -2430.31 0 0 -2075.98 2430.31 0 0 -3710.63 2798.82 0 0 3710.63 3342.13 0 0 2075.98 -3342.13 0 0 9337.8c0,737.402 150.394,1280.71 441.732,1634.65 295.669,349.213 688.583,524.016 1178.35,524.016 335.039,0 703.543,-29.1339 1111.02,-92.126 407.48,-63.3858 722.835,-116.535 950.787,-164.961l383.071 1833.46c-407.48,125.984 -907.087,232.677 -1498.82,329.921 -591.732,92.126 -1144.88,140.551 -1653.94,140.551zm12110.6 58.2677c-1421.26,0 -2643.7,-334.646 -3672.05,-1004.33 -1028.35,-669.291 -1818.9,-1590.94 -2381.5,-2769.69 -557.874,-1178.74 -834.646,-2527.17 -834.646,-4045.28l0 -310.63c0,-1518.11 276.772,-2866.54 834.646,-4045.28 562.598,-1178.74 1353.15,-2105.51 2381.5,-2779.53 1028.35,-669.685 2246.06,-1009.06 3647.64,-1009.06 1421.26,0 2643.7,339.37 3672.05,1009.06 1028.35,674.016 1819.29,1600.79 2381.89,2774.41 557.874,1174.02 834.252,2522.44 834.252,4050.39l0 310.63c0,1527.95 -276.378,2876.38 -834.252,4059.84 -562.598,1178.74 -1353.54,2100.39 -2376.77,2760.24 -1023.62,664.567 -2241.34,999.213 -3652.76,999.213zm0 -2192.52c892.52,0 1639.37,-242.52 2240.94,-732.677 601.575,-485.039 1057.48,-1154.33 1362.99,-2003.15 310.63,-844.094 461.024,-1809.45 461.024,-2890.94l0 -310.63c0,-1081.5 -150.394,-2046.85 -461.024,-2890.94 -305.512,-848.819 -766.142,-1518.11 -1372.44,-2008.27 -606.299,-485.039 -1358.27,-727.559 -2255.91,-727.559 -892.52,0 -1639.37,242.52 -2245.67,727.559 -606.299,490.157 -1062.2,1159.45 -1368.11,2008.27 -300.394,844.094 -450.787,1809.45 -450.787,2890.94l0 310.63c0,1081.5 150.394,2046.85 450.787,2890.94 305.906,848.819 761.811,1518.11 1372.83,2003.15 611.417,490.157 1368.11,732.677 2265.35,732.677zm16006.3 2192.52c-1663.78,0 -2968.5,-538.583 -3904.72,-1610.63 -941.339,-1066.93 -1406.69,-2735.83 -1406.69,-5000.79l0 -6863.78 -1765.75 -398.031 0 -1804.33 1765.75 0 2798.82 0 0 9095.28c0,1639.37 242.52,2764.57 722.441,3380.71 485.433,616.142 1237.01,926.378 2260.63,926.378 994.488,0 1818.9,-203.543 2464.17,-606.299 650,-402.362 1139.76,-970.079 1474.8,-1712.2l0 -8881.5 -2061.81 -398.031 0 -1804.33 2061.81 0 2798.82 0 0 13189 1760.63 398.031 0 1789.76 -4278.35 0 -184.252 -2274.8c-485.039,824.409 -1105.91,1459.84 -1867.72,1906.3 -761.417,446.063 -1644.09,669.291 -2638.58,669.291zm11116.5 -300.787l0 -1789.76 2313.78 -398.031 0 -10986.6 -2313.78 -398.031 0 -1804.33 4816.54 0 242.52 1959.84 29.1339 271.654c436.614,-785.827 970.079,-1401.97 1610.63,-1848.43 640.157,-446.063 1372.83,-669.291 2197.24,-669.291 290.945,0 591.732,29.1339 902.362,82.2835 305.512,48.8189 528.74,101.969 659.449,145.669l-368.504 2600 -1945.28 -111.417c-742.126,-48.8189 -1362.99,121.26 -1862.6,504.331 -504.331,383.071 -892.52,897.244 -1164.17,1542.52l0 8711.81 2313.78 398.031 0 1789.76 -7431.1 0zm12280.7 0l0 -1789.76 2318.5 -398.031 0 -10986.6 -2318.5 -398.031 0 -1804.33 5117.32 0 0 13189 2318.9 398.031 0 1789.76 -7436.22 0zm2173.23 -19170.1l0 -2997.64 2944.09 0 0 2997.64 -2944.09 0zm13633.9 19470.9c-1033.07,0 -1998.43,-106.693 -2900.79,-315.354 -897.244,-208.661 -1852.76,-528.74 -2866.54,-965.354l-29.1339 -3652.36 2114.96 0 528.74 2201.97c528.74,218.504 1042.91,378.346 1537.4,475.591 499.606,101.575 1038.19,150.394 1615.35,150.394 1135.04,0 1950,-218.504 2444.88,-655.118 489.764,-436.614 737.402,-974.803 737.402,-1620.08 0,-606.299 -247.638,-1120.47 -747.244,-1542.52 -494.488,-422.047 -1396.85,-775.984 -2706.69,-1072.05 -1852.76,-426.772 -3220.87,-994.488 -4098.82,-1712.2 -877.953,-712.992 -1314.57,-1668.5 -1314.57,-2861.81 0,-834.252 242.52,-1581.5 727.559,-2241.34 480.315,-654.724 1154.72,-1178.35 2018.11,-1566.54 858.661,-388.189 1862.6,-587.008 3012.2,-587.008 1164.17,0 2158.66,135.827 2988.19,402.756 829.528,261.811 1551.97,615.748 2168.11,1062.2l140.551 3511.81 -2100.39 0 -455.906 -2046.85c-329.528,-247.638 -722.441,-436.614 -1178.74,-567.717 -455.906,-135.827 -974.803,-198.819 -1561.81,-198.819 -873.228,0 -1581.5,203.937 -2124.41,611.417 -548.425,407.087 -820.079,916.535 -820.079,1532.68 0,359.055 77.5591,674.409 237.795,940.945 155.118,261.811 455.906,504.724 902.362,712.992 441.339,213.386 1096.06,427.165 1959.45,635.433 2139.37,499.606 3633.46,1140.16 4482.28,1916.14 848.819,781.102 1270.87,1736.61 1270.87,2871.65 0,1300 -480.315,2386.61 -1440.55,3264.57 -960.63,873.228 -2474.02,1314.57 -4540.55,1314.57zm8516.93 -300.787l0 -1789.76 2313.78 -398.031 0 -10986.6 -2313.78 -398.031 0 -1804.33 4831.1 0 184.252 2003.15c494.882,-727.559 1125.59,-1290.16 1906.3,-1687.8 776.378,-402.756 1673.62,-601.575 2697.24,-601.575 1023.62,0 1901.57,237.795 2638.58,712.992 732.677,475.591 1285.43,1183.46 1654.33,2129.53 485.039,-868.11 1120.47,-1561.81 1916.14,-2071.26 800,-514.173 1726.77,-771.26 2788.98,-771.26 1571.65,0 2813.39,538.583 3720.47,1615.35 911.811,1076.77 1368.11,2692.13 1368.11,4850.79l0 7009.06 2313.78 398.031 0 1789.76 -7446.06 0 0 -1789.76 2313.78 -398.031 0 -7033.46c0,-1518.11 -257.087,-2590.16 -781.102,-3220.87 -518.898,-630.709 -1290.16,-946.063 -2313.78,-946.063 -974.803,0 -1760.63,344.488 -2352.36,1033.46 -591.732,683.858 -936.22,1547.24 -1028.35,2590.16l0 7576.77 2313.78 398.031 0 1789.76 -7431.5 0 0 -1789.76 2313.78 -398.031 0 -7033.46c0,-1440.55 -266.535,-2498.03 -800.394,-3162.6 -538.189,-669.291 -1309.45,-1004.33 -2323.23,-1004.33 -853.937,0 -1552.36,174.803 -2105.12,528.74 -548.425,349.606 -970.472,839.37 -1266.14,1474.8l0 9196.85 2318.5 398.031 0 1789.76 -7431.1 0z"/>
 </g>
</svg>
