<?xml version="1.0" encoding="UTF-8"?>
<!DOCTYPE svg PUBLIC "-//W3C//DTD SVG 1.0//EN" "http://www.w3.org/TR/2001/REC-SVG-20010904/DTD/svg10.dtd">
<!-- Creator: CorelDRAW -->
<svg xmlns="http://www.w3.org/2000/svg" xml:space="preserve" width="100%" height="100%" version="1.0" style="shape-rendering:geometricPrecision; text-rendering:geometricPrecision; image-rendering:optimizeQuality; fill-rule:evenodd; clip-rule:evenodd"
viewBox="0 0 16952.94 2402.6"
 xmlns:xlink="http://www.w3.org/1999/xlink"
 xmlns:xodm="http://www.corel.com/coreldraw/odm/2003">
 <defs>
  <style type="text/css">
   <![CDATA[
    .fil0 {fill:#004094}
    .fil1 {fill:#2C2B2A}
    .fil4 {fill:#004094;fill-rule:nonzero}
    .fil3 {fill:#2B2A29;fill-rule:nonzero}
    .fil2 {fill:#FEFEFE;fill-rule:nonzero}
   ]]>
  </style>
 </defs>
 <g id="Layer_x0020_1">
  <metadata id="CorelCorpID_0Corel-Layer"/>
  <path class="fil0" d="M1883.08 1874.33c183.36,-183.32 286.46,-430.34 286.46,-691.54 0,-261.21 -103.1,-508.21 -286.46,-691.53 -184.98,-184.96 -432.98,-286.71 -692.64,-286.71 -259.66,0 -507.66,101.77 -692.65,286.71 -183.36,183.3 -286.43,430.32 -286.43,691.53 0,261.2 103.07,508.22 286.43,691.54 184.99,184.94 432.99,286.69 692.65,286.69 259.66,0 507.66,-101.75 692.64,-286.69z"/>
  <path class="fil1" d="M1883.08 1874.6c-175.55,175.51 -407.88,275.93 -653.04,285.72l0 -113.28c0,-20.11 -16.44,-36.55 -36.52,-36.55l-5.2 0c-20.1,0 -36.51,16.44 -36.51,36.55l0 113.3c-245.51,-9.58 -478.23,-109.99 -654.02,-285.74 -173.46,-173.42 -274.94,-403.89 -285.41,-649.4l106.08 0c20.1,0 36.53,-16.45 36.53,-36.56l0 -5.19c0,-20.11 -16.43,-36.53 -36.53,-36.53l-106.22 0c9.06,-247.77 110.69,-480.57 285.55,-655.38 175.83,-175.79 408.62,-276.23 654.19,-285.76l0 85.51c0,20.11 16.42,36.53 36.52,36.53l5.19 0c20.1,0 36.51,-16.42 36.51,-36.53l0 -85.49c245.12,9.84 477.37,110.26 652.88,285.74 174.87,174.82 276.5,407.61 285.56,655.38l-121.47 0c-20.11,0 -36.54,16.42 -36.54,36.53l0 5.19c0,20.11 16.43,36.56 36.54,36.56l121.33 0c-10.45,245.51 -111.95,475.98 -285.42,649.4zm446.01 -727.68l-70.6 0c-9.09,-272.22 -120.49,-528.16 -312.52,-720.16 -192.31,-192.26 -447.03,-302.12 -715.77,-312.04l0 -78.21c0,-20.09 -16.41,-36.51 -36.51,-36.51l-5.19 0c-20.1,0 -36.52,16.42 -36.52,36.51l0 78.17c-269.19,9.62 -524.43,119.52 -717.08,312.08 -192.02,192 -303.42,447.94 -312.51,720.16l-85.85 0c-20.11,0 -36.54,16.42 -36.54,36.53l0 5.19c0,20.11 16.43,36.56 36.54,36.56l85.98 0c10.54,269.99 121.76,523.58 312.38,714.15 192.59,192.56 447.77,302.43 716.91,312.08l0 77.64c0,20.09 16.41,36.53 36.51,36.53l5.2 0c20.08,0 36.52,-16.44 36.52,-36.53l0 -77.67c268.76,-9.87 523.58,-119.75 715.93,-312.05 190.63,-190.57 301.85,-444.16 312.37,-714.15l70.75 0c20.08,0 36.51,-16.45 36.51,-36.56l0 -5.19c0,-20.11 -16.43,-36.53 -36.51,-36.53z"/>
  <polygon class="fil2" points="1492.9,1927.79 909.94,1927.79 909.94,1713.34 1084.15,1713.34 1084.15,1007.71 909.94,1007.71 909.94,792.21 1322.95,792.21 1322.95,1713.34 1492.9,1713.34 "/>
  <path class="fil2" d="M1193.46 695.06c-38.59,0 -71.98,-14.21 -99.21,-42.2 -27.14,-27.9 -40.92,-61.59 -40.92,-100.1 0,-38.51 13.78,-72.19 40.92,-100.11 27.25,-27.99 60.63,-42.18 99.21,-42.18 39.94,0 74,13.8 101.23,41.03 27.22,27.2 41.02,61.29 41.02,101.26 0,38.55 -14.17,72.25 -42.08,100.19 -27.93,27.94 -61.63,42.11 -100.17,42.11z"/>
  <path class="fil3" d="M3277.62 568.06c-38.6,0 -71.97,-14.19 -99.24,-42.16 -27.13,-27.91 -40.89,-61.6 -40.89,-100.08 0,-38.49 13.76,-72.18 40.89,-100.09 27.27,-27.97 60.64,-42.15 99.24,-42.15 39.93,0 73.98,13.79 101.25,41.02 27.19,27.17 40.99,61.25 40.99,101.22 0,38.56 -14.15,72.25 -42.09,100.19 -27.9,27.9 -61.63,42.05 -100.15,42.05zm299.44 1359.5l-582.97 0 0 -214.39 174.2 0 0 -705.41 -174.2 0 0 -215.44 413.03 0 0 920.85 169.94 0 0 214.39z"/>
  <path class="fil3" d="M5012.19 1927.56l-425.77 0 0 -746.58c0,-67.91 -9.67,-116.91 -28.68,-145.6 -18.49,-27.86 -48.4,-41.41 -91.41,-41.41 -94.12,0 -201.68,46.95 -319.79,139.56l0 579.65 192.27 0 0 214.38 -624.39 0 0 -214.38 196.5 0 0 -705.42 -196.5 0 0 -215.44 432.12 0 0 125.91c132.19,-93.45 258.66,-140.8 376.1,-140.8 102.44,0 179.46,32.32 228.92,96.1 48.93,63.01 73.69,161.82 73.69,293.62l0 546.03 186.94 0 0 214.38z"/>
  <path class="fil3" d="M5720.93 983.33c-65.02,0 -123.79,17.5 -174.7,52.03 -51.15,34.65 -92.11,81.32 -121.7,138.79 -29.6,57.5 -44.63,119.84 -44.63,185.24 0,70.31 15.34,134.58 45.61,190.96 30.2,56.3 71.97,101.21 124.11,133.42 52,32.21 111.05,48.51 175.58,48.51 65.72,0 125.76,-17.68 178.47,-52.6 52.91,-35.03 95.07,-82.45 125.34,-140.9 30.3,-58.56 45.68,-122.13 45.68,-188.91 0,-67.46 -15.34,-129.9 -45.61,-185.6 -30.2,-55.6 -72.64,-100.12 -126.12,-132.36 -53.48,-32.25 -114.72,-48.58 -182.03,-48.58zm-37.18 963.36c-108.91,0 -206.52,-26.07 -290.13,-77.36 -83.54,-51.26 -149.4,-121.99 -195.68,-210.26 -46.18,-88.08 -69.61,-186.79 -69.61,-293.29 0,-108.66 24.87,-210.22 73.87,-301.88 49.08,-91.61 117.9,-165.56 204.65,-219.67 86.78,-54.19 182.1,-81.67 283.25,-81.67 73.23,0 143.68,14.92 209.41,44.42 59.79,26.77 118.63,68.05 175.18,122.8l0 -409.51 -215.61 0 0 -212.3 452.29 0 0 1405.19 201.83 0 0 214.41 -438.51 0 0 -149.33c-109.96,111.8 -241.37,168.45 -390.94,168.45z"/>
  <path class="fil3" d="M6912.85 568.06c-38.6,0 -71.97,-14.19 -99.24,-42.16 -27.16,-27.91 -40.92,-61.56 -40.92,-100.08 0,-38.49 13.76,-72.18 40.92,-100.09 27.27,-27.97 60.64,-42.15 99.24,-42.15 39.93,0 73.98,13.79 101.21,41.02 27.24,27.2 41.03,61.28 41.03,101.22 0,38.52 -14.15,72.21 -42.09,100.19 -27.9,27.9 -61.63,42.05 -100.15,42.05zm299.44 1359.5l-582.97 0 0 -214.39 174.2 0 0 -705.41 -174.2 0 0 -215.44 413 0 0 920.85 169.97 0 0 214.39z"/>
  <path class="fil3" d="M7835.99 1400.74c-55.42,0 -103.89,17.63 -144.07,52.38 -40.32,34.93 -59.9,77.58 -59.9,130.39 0,50.87 17.11,91.9 52.28,125.34 34.82,33.2 80.5,49.99 135.78,49.99 103.47,0 202.11,-43.57 293.23,-129.5l0 -121.89c-92.25,-70.8 -185.52,-106.71 -277.32,-106.71zm-45.65 545.95c-70.02,0 -135,-16.51 -193.18,-49.03 -58.1,-32.49 -105.3,-76.62 -140.37,-131.13 -35.17,-54.75 -52.98,-116.31 -52.98,-183.02 0,-71.76 19.68,-136.6 58.49,-192.86 38.7,-56.06 91.61,-99.8 157.3,-130.14 65.44,-30.17 132.15,-45.51 198.37,-45.51 104.74,0 204.01,29.46 295.34,87.52l0 -102.41c0,-84.1 -17.67,-144.74 -52.53,-180.34 -34.82,-35.45 -93.66,-53.41 -174.83,-53.41 -57.65,0 -106.33,10.48 -144.75,31.22 -38.31,20.71 -70.52,52.57 -95.67,94.79l-3.56 6.04 -228.99 -56.66 5.75 -10.76c48.12,-89.75 114.09,-157.69 196.11,-201.93 81.77,-44.13 180.13,-66.5 292.34,-66.5 151.24,0 263.74,35.24 334.3,104.71 70.59,69.53 106.39,180.02 106.39,328.54l0 517.35 186.94 0 0 214.41 -399.2 0 0 -124.46c-103.54,95.29 -219.57,143.58 -345.27,143.58z"/>
  <path class="fil3" d="M9193.6 1946.68c-53.09,0 -106.01,-7.83 -157.27,-23.25 -44.3,-13.3 -82.79,-29.67 -114.68,-48.72l0 52.85 -214.42 0 0 -401.32 214.42 0 0 47.73c9.84,49.14 38.66,90.7 85.47,121.64 47.38,31.36 103.33,47.31 166.3,47.31 69.4,0 124.53,-12.25 163.94,-36.34 38.38,-23.5 57.04,-57.54 57.04,-103.96 0,-32.67 -14.35,-56.52 -43.95,-72.96 -31.54,-17.46 -96.7,-35.91 -193.68,-54.75l-113.84 -24.45c-113.91,-22.93 -198.86,-63.14 -252.38,-119.59 -53.86,-56.73 -81.21,-130.07 -81.21,-217.87 0,-71.27 20.18,-133.07 59.91,-183.77 39.44,-50.27 90.59,-88.61 152.04,-113.87 61,-25.16 124.75,-37.93 189.45,-37.93 101.31,0 188.77,18.91 260.31,56.17l0 -41.28 210.15 0 0 389.61 -210.15 0 0 -74.44c-61.42,-86.6 -146.12,-130.53 -251.78,-130.53 -55.81,0 -101.91,12.28 -136.95,36.55 -34.39,23.85 -51.15,53.59 -51.15,90.98 0,33.24 12.45,58.53 38.1,77.3 26.6,19.58 88.62,37.22 184.4,52.49l147.95 28.72c224.23,41.1 338,153.24 338,333.23 0,105.31 -41.45,191.07 -123.15,254.95 -80.97,63.36 -189.62,95.5 -322.87,95.5z"/>
  <path class="fil3" d="M10244.24 1946.68c-94.48,0 -163.73,-24.48 -205.78,-72.81 -41.7,-47.95 -62.86,-130.28 -62.86,-244.69l0 -621.42 -145.52 0 0 -215.44 145.52 0 0 -163.58 238.83 -218.05 0 381.63 203.94 0 0 215.44 -203.94 0 0 575.74c0,72.95 9.7,101.67 17.81,112.85 11.33,15.63 30.87,23.21 59.76,23.21 37.72,0 75.99,-6.63 113.78,-19.68l12.59 -4.34 0 219.04 -6.84 1.97c-68.58,20.01 -124.85,30.13 -167.29,30.13z"/>
  <path class="fil3" d="M11062.27 1400.74c-55.42,0 -103.89,17.63 -144.07,52.38 -40.32,34.93 -59.94,77.58 -59.94,130.39 0,50.2 17.61,92.36 52.28,125.34 34.86,33.2 80.51,49.99 135.79,49.99 103.5,0 202.1,-43.57 293.23,-129.5l0 -121.89c-92.22,-70.8 -185.49,-106.71 -277.29,-106.71zm-45.65 545.95c-70.02,0 -135.04,-16.51 -193.18,-49.03 -58.1,-32.49 -105.34,-76.59 -140.37,-131.13 -35.17,-54.75 -52.98,-116.31 -52.98,-183.02 0,-71.76 19.68,-136.63 58.49,-192.86 38.7,-56.06 91.61,-99.8 157.3,-130.14 65.4,-30.17 132.15,-45.51 198.33,-45.51 104.78,0 204.05,29.46 295.35,87.52l0 -102.41c0,-84.1 -17.68,-144.74 -52.5,-180.34 -34.82,-35.45 -93.66,-53.41 -174.87,-53.41 -57.61,0 -106.29,10.48 -144.71,31.22 -38.31,20.71 -70.48,52.57 -95.67,94.79l-3.6 6.04 -228.95 -56.66 5.75 -10.76c48.08,-89.75 114.05,-157.69 196.07,-201.93 81.78,-44.13 180.13,-66.5 292.35,-66.5 151.27,0 263.77,35.24 334.33,104.71 70.59,69.53 106.36,180.02 106.36,328.54l0 517.35 186.94 0 0 214.41 -399.21 0 0 -124.46c-103.5,95.29 -219.53,143.58 -345.23,143.58z"/>
  <path class="fil3" d="M12324.27 1946.68c-94.48,0 -163.73,-24.48 -205.74,-72.81 -41.74,-47.95 -62.87,-130.28 -62.87,-244.69l0 -621.42 -145.52 0 0 -215.44 145.52 0 0 -163.58 238.8 -218.05 0 381.63 203.94 0 0 215.44 -203.94 0 0 575.74c0,72.95 9.73,101.67 17.85,112.85 11.29,15.63 30.83,23.21 59.76,23.21 37.71,0 75.99,-6.63 113.73,-19.68l12.6 -4.34 0 219.04 -6.85 1.97c-68.54,20.01 -124.85,30.13 -167.28,30.13z"/>
  <path class="fil4" d="M12921.58 1458.09c0,-175.49 37.5,-316.91 112.17,-424.6 75.01,-107.36 179.61,-161.38 314.15,-161.38 63.66,0 120.77,12.04 170.32,35.78 49.89,24.09 92.22,58.84 126.97,104.61l16.17 -120.09 171.36 0 0 1353.98 164.47 28.21 0 128 -527.48 0 0 -128 164.47 -28.21 0 -366.11c-35.1,40.94 -76.39,71.91 -124.56,92.9 -47.83,20.65 -102.54,30.97 -163.78,31.31 -133.17,-0.34 -237.08,-48.51 -312.09,-144.86 -74.67,-96.34 -112.17,-223.31 -112.17,-380.55l0 -20.99zm198.54 20.99c0,110.1 22.36,199.56 67.44,267.69 45.07,68.13 114.58,102.2 208.86,102.2 55.05,0 101.84,-12.05 140.38,-36.13 38.88,-24.09 71.23,-58.5 97.38,-102.88l0 -547.44c-26.15,-40.95 -58.84,-73.64 -97.72,-97.72 -38.88,-24.09 -84.99,-36.13 -138.32,-36.13 -94.63,0 -164.82,39.91 -209.9,120.43 -45.41,80.17 -68.12,183.05 -68.12,308.99l0 20.99z"/>
  <path id="_1" class="fil4" d="M14880.36 1821.78c-34.07,58.5 -78.45,103.57 -132.48,135.23 -54.02,31.66 -116.3,47.14 -186.83,47.48 -118.37,-0.34 -210.93,-38.19 -277.34,-114.23 -66.4,-75.7 -99.78,-194.07 -99.78,-354.75l0 -486.88 -124.9 -28.22 0 -128 124.9 0 198.54 0 0 645.16c0,116.3 17.2,196.13 51.26,239.83 34.41,43.7 87.75,65.72 160.35,65.72 70.54,0 129.03,-14.45 175.14,-43.01 45.76,-28.56 80.51,-68.82 104.26,-121.47l0 -630.01 -146.24 -28.22 0 -128 146.24 0 198.53 0 0 935.57 124.91 28.21 0 126.97 -303.49 0 -13.07 -161.38z"/>
  <path id="_2" class="fil4" d="M15369.9 1856.19l164.12 -28.21 0 -779.35 -164.12 -28.22 0 -128 362.66 0 0 935.57 164.47 28.21 0 126.97 -527.13 0 0 -126.97zm362.66 -1242.83l-198.54 0 0 -202.67 198.54 0 0 202.67z"/>
  <polygon id="_3" class="fil4" points="16322.92,1827.98 16768.51,1827.98 16784.34,1659.72 16952.94,1659.72 16952.94,1983.16 16086.88,1983.16 16086.88,1844.15 16676.64,1049.66 16277.5,1049.66 16262.36,1216.88 16093.07,1216.88 16093.07,892.41 16919.57,892.41 16919.57,1027.64 "/>
 </g>
</svg>
