<?xml version="1.0" encoding="UTF-8"?>
<!DOCTYPE svg PUBLIC "-//W3C//DTD SVG 1.0//EN" "http://www.w3.org/TR/2001/REC-SVG-20010904/DTD/svg10.dtd">
<!-- Creator: CorelDRAW -->
<svg xmlns="http://www.w3.org/2000/svg" xml:space="preserve" width="100%" height="100%" version="1.0" style="shape-rendering:geometricPrecision; text-rendering:geometricPrecision; image-rendering:optimizeQuality; fill-rule:evenodd; clip-rule:evenodd"
viewBox="0 0 2111.09 1072.45"
 xmlns:xlink="http://www.w3.org/1999/xlink"
 xmlns:xodm="http://www.corel.com/coreldraw/odm/2003">
 <defs>
  <style type="text/css">
   <![CDATA[
    .fil1 {fill:#ED3237}
    .fil0 {fill:#F58634}
    .fil3 {fill:#FDB92E}
    .fil2 {fill:#FFF212}
    .fil4 {fill:black;fill-rule:nonzero}
   ]]>
  </style>
 </defs>
 <g id="Layer_x0020_1">
  <metadata id="CorelCorpID_0Corel-Layer"/>
  <g id="_2504934800576">
   <path class="fil0" d="M1547.45 344.45l-476.74 223.57 257.69 1.89 281.5 0c-4.27,-81.19 -26.33,-157.64 -62.45,-225.46z"/>
   <path class="fil1" d="M827.44 54.84c-205.73,97.19 -326.1,301.77 -326.22,515.04l68.05 0.03c-0.7,-119 40.41,-238.46 125.66,-334.34 183.11,-205.86 498.5,-224.09 704.26,-40.91l-328.36 368.8 -5.38 5.45 5.49 0.27 4.55 -1.6 510.3 -241.34c-134.35,-284.36 -474.04,-405.96 -758.35,-271.4z"/>
   <path class="fil0" d="M727.12 447.67c56.92,-191.74 258.39,-301.02 450.04,-244.12l-107.01 360.58 329.04 -369.47c-205.76,-183.18 -521.15,-164.95 -704.26,40.91 -85.25,95.88 -126.36,215.33 -125.67,334.31l143.73 0.03c-2.17,-40.21 2.02,-81.4 14.13,-122.24z"/>
   <path class="fil2" d="M1070.87 311.5c-142.6,0 -258.35,114.33 -259.05,258.37l516.5 0.04c0.76,-144.08 -114.83,-258.41 -257.45,-258.41z"/>
   <path class="fil3" d="M1070.87 311.5c24.75,0 48.65,3.59 71.31,10.06l34.99 -118.01c-191.6,-56.89 -393.13,52.39 -450.05,244.11 -12.1,40.86 -16.3,82.03 -14.12,122.21l98.82 0.04c1.07,-143.85 116.58,-258.41 259.05,-258.41z"/>
   <path class="fil4" d="M-0 780.8l0 41.19 123.69 0 0 22.95c-12.02,0 -23.83,2.01 -35.53,6.03 -11.7,3.97 -22.1,9.73 -31.17,17.16 -9.1,7.52 -16.52,16.83 -22.17,27.96 -5.72,11.17 -8.55,23.81 -8.55,38.08 0,15.34 3.1,28.77 9.28,40.46 6.19,11.63 14.12,21.41 23.82,29.2 9.79,7.87 20.66,13.74 32.68,17.74 12.01,4.01 23.86,6.04 35.56,6.04 6.5,0 12.33,-0.44 17.52,-1.35 5.16,-0.89 11.54,-2.13 18.98,-3.89l22.91 50.08 40.91 -18.24 -26.27 -47.52c8.13,-5.9 14.07,-12.93 18.01,-21.05 3.89,-8.2 5.83,-16.83 5.83,-25.85 -0.65,-7 -2.36,-13.35 -5.11,-19.1 -2.73,-5.72 -6.17,-10.65 -10.25,-14.87 -4.03,-4.16 -8.66,-7.4 -13.87,-9.67 -5.21,-2.23 -10.41,-3.42 -15.57,-3.42 -11.7,0 -21.68,3.72 -29.95,11.01 -8.27,7.34 -12.92,17.19 -13.9,29.74 0,5.93 0.82,11.47 2.44,16.71 1.62,5.28 3.59,9.24 5.84,12.02 -2.25,0.31 -4.22,0.49 -5.84,0.49l-3.87 0c-5.56,0 -10.59,-1.29 -15.12,-3.89 -4.56,-2.66 -8.37,-6.15 -11.47,-10.68 -3.07,-4.56 -5.44,-9.63 -7.04,-15.17 -1.65,-5.56 -2.47,-11.3 -2.47,-17.17 0,-9.78 1.97,-18.02 5.85,-24.8 3.93,-6.8 8.79,-12.27 14.64,-16.45 5.86,-4.13 12.1,-7.23 18.74,-9.13 6.66,-1.93 12.75,-2.9 18.27,-2.9 7.49,0 14.38,0.75 20.7,2.35 6.36,1.58 12.1,3.44 17.29,5.55l0 -68.42 46.28 0 0 -41.19 -241.09 0zm173.4 13.03l32.12 -21.92 -31.55 -102.32 -59.91 26.64 59.34 97.6zm-86.97 -103.46l-51.65 40.74 89.88 69.48 30.21 -25.57 -68.44 -84.65zm256.93 90.91l-16.03 0c-9.46,-1.03 -17.16,-4.16 -23.17,-9.37 -6.02,-5.21 -9.03,-11.89 -9.03,-19.81 0,-6.31 1.15,-11.34 3.43,-15.13 2.25,-3.85 5.36,-7 9.28,-9.45 3.85,-2.44 8.24,-4.07 13.12,-4.89 4.84,-0.89 9.77,-1.35 14.6,-1.35 7.18,0 15.38,0.94 24.6,2.86 9.26,1.94 18.84,5.05 28.75,9.37 9.9,4.38 19.81,10.21 29.7,17.48 9.93,7.34 19.27,16.41 28.02,27.16l29.71 -22.47c-13.32,-15.65 -27.01,-28.82 -41.15,-39.63 -14.13,-10.75 -28.25,-19.54 -42.39,-26.34 -14.11,-6.79 -27.92,-11.65 -41.4,-14.6 -13.49,-2.98 -26.05,-4.46 -37.76,-4.46 -15.89,0 -29.21,1.91 -39.93,5.45 -10.73,3.7 -19.43,8.66 -26.05,14.89 -6.66,6.27 -11.38,13.44 -14.15,21.44 -2.72,7.96 -4.1,16.19 -4.1,24.54 0,7.99 1.25,15.88 3.9,23.71 2.57,7.85 6.63,14.68 12.13,20.6l-29.71 0 0 40.71 27.79 0 0 220.19 60.86 0 0 -220.19 38.98 0 0 -40.71zm126.66 93.96l-79.9 0c-2.59,0 -6.93,0.59 -12.9,1.79 -6.02,1.21 -12.17,3.9 -18.51,7.83 -6.32,4.03 -11.93,9.89 -16.83,17.46 -4.85,7.73 -7.27,18.13 -7.27,31.37 0,6.97 1.35,13.44 4.13,19.54 2.75,6.07 6.48,11.41 11.2,15.89 4.68,4.58 9.99,8.04 15.82,10.44 5.86,2.52 11.87,3.66 18,3.66 12.68,0 23.58,-3.96 32.66,-12 9.11,-8.03 13.65,-18.43 13.65,-31.3 0,-4.89 -0.41,-9.06 -1.2,-12.54 -0.84,-3.48 -2.52,-7.1 -5.16,-10.93l46.31 0 0 -41.21zm24.34 -94.44l-178.77 0 0 41.19 178.77 0 0 -41.19zm-58.45 41.19l25.33 0 0 220.19 72.08 0 0 -220.19 27.75 0 0 -41.19 -125.16 0 0 41.19zm95.94 0l148.1 0 0 151.82c-3.59,2.44 -6.44,3.99 -8.57,4.72 -2.05,0.73 -3.81,1.03 -5.1,1.03 -6.48,-0.3 -11.9,-2.31 -16.31,-5.96 -4.36,-3.64 -7.87,-8.1 -10.45,-13.33 -2.64,-5.21 -4.56,-11.04 -5.85,-17.51 -1.31,-6.38 -1.96,-12.59 -1.96,-18.52 0,-5.5 0.65,-11.51 1.96,-17.75 1.29,-6.23 3.14,-11.89 5.58,-16.95 2.45,-4.95 5.54,-9.2 9.27,-12.51 3.7,-3.27 7.87,-4.96 12.44,-4.96 2.91,0 6.96,1.92 12.14,5.72l0 -32.33c-3.59,-3.8 -8.35,-6.33 -14.35,-7.55 -6.03,-1.2 -11.78,-1.86 -17.31,-1.86 -10.4,0 -20.44,2 -30.18,5.79 -9.74,3.82 -18.46,9.65 -26.05,17.47 -7.66,7.82 -13.82,17.52 -18.52,29.23 -4.69,11.69 -7.07,25.12 -7.07,40.47 0,13.23 2.06,25.43 6.09,36.73 4.05,11.3 9.76,21.13 17.04,29.5 7.33,8.37 15.84,14.93 25.56,19.83 9.75,4.86 20.29,7.3 31.68,7.3 8.74,0 16.72,-1 23.88,-3.14 7.12,-2.1 12.49,-4.34 16.08,-6.78l0 29.73 72.05 0 0 -155.51c2.28,-4.16 4.96,-7.12 8.06,-8.88 3.09,-1.73 6.19,-2.55 9.49,-2.55 4.89,0 9.27,1.76 13.16,5.17 3.86,3.52 7.12,7.89 9.74,13.03 2.61,5.28 4.63,10.95 6.08,17.3 1.45,6.23 2.19,12.16 2.19,17.67 0,16.04 -2.74,28.44 -8.27,37.09 -5.53,8.65 -12.99,13.03 -22.43,13.03 -1.6,0 -3.32,-0.18 -5.07,-0.52 -1.8,-0.34 -3.53,-0.85 -5.14,-1.55l0 39.64c3.25,1.41 8.44,2.55 15.62,3.41 7.1,0.85 13.46,1.31 18.99,1.31 10.35,0 20.17,-2.17 29.45,-6.52 9.22,-4.38 17.37,-10.47 24.36,-18.26 6.96,-7.86 12.49,-17.23 16.54,-28.23 4.04,-10.92 6.08,-22.99 6.08,-36.25 0,-15.62 -2.25,-29.44 -6.84,-41.46 -4.49,-11.96 -10.61,-22 -18.24,-30.06 -7.64,-7.96 -16.39,-13.96 -26.29,-17.98 -9.89,-3.96 -20.36,-6.01 -31.44,-6.01 -8.08,0 -14.77,1.1 -19.98,3.17 -5.19,2.06 -10.53,4.14 -16.06,6.24l0 -23.47 137.38 0 0 -41.19 -357.53 0 0 41.19zm677.29 34.99l-160.22 0 0 41.74c19.1,-1.42 33.32,2.6 42.56,12.02 9.25,9.34 13.85,22.23 13.85,38.55 0,3.16 -0.47,7.32 -1.44,12.56 -0.96,5.23 -2.76,10.24 -5.37,15.13 -2.55,4.87 -6.41,9.09 -11.44,12.78 -5.04,3.67 -11.42,5.48 -19.2,5.48 -9.09,-0.34 -16.62,-2.56 -22.4,-6.54 -5.87,-3.97 -10.83,-9.14 -14.89,-15.37 -4.04,-6.25 -7.52,-13.13 -10.41,-20.65 -2.94,-7.44 -5.87,-14.76 -8.79,-21.96 -2.93,-7.06 -6.31,-13.47 -10.02,-19.22 -3.7,-5.77 -8.36,-10.03 -13.87,-12.78l-43.86 38.6c6.51,3.82 12.02,9.26 16.6,16.16 4.52,6.95 9,14.47 13.41,22.43 4.34,8.03 9.14,16.18 14.34,24.56 5.16,8.28 11.85,16 19.98,22.93 8.11,6.99 18,12.73 29.72,17.23 11.68,4.53 26.26,7.14 43.8,7.79 13.3,0.42 25.91,-1.72 37.77,-6.24 11.85,-4.51 22.12,-10.82 30.96,-19.02 8.75,-8.2 15.63,-17.81 20.68,-28.95 4.99,-11.18 7.36,-23.31 7.02,-36.53 -0.31,-9.02 -1.76,-16.99 -4.41,-23.78 -2.56,-6.79 -5.65,-12.52 -9.18,-17.2 -3.58,-4.72 -7.16,-8.45 -10.74,-11.24 -3.58,-2.76 -6.35,-5.03 -8.35,-6.74l63.9 0 0 -41.74zm-9.78 -76.18l-210.48 0 0 41.19 210.48 0 0 -41.19zm-34.6 41.19l25.37 0 0 220.19 72.02 0 0 -220.19 27.81 0 0 -41.19 -125.2 0 0 41.19zm92.57 0l25.29 0 0 220.19 72.12 0 0 -220.19 27.77 0 0 -41.19 -125.18 0 0 41.19zm303.91 -41.19l-207 0 0 41.19 63.35 0c4.83,0.34 9.49,2.31 13.86,5.98 4.41,3.67 8.2,8.42 11.44,14.38 3.28,5.94 5.85,12.8 7.76,20.62 2.02,7.84 3.12,16.1 3.44,24.77 0,1.38 -0.07,3.62 -0.24,6.8 -0.21,3.13 -0.48,6.62 -0.99,10.44 -0.46,3.79 -1.05,7.61 -1.71,11.47 -0.64,3.83 -1.58,6.97 -2.93,9.37 -5.51,-10.74 -11.54,-17.73 -18.02,-20.84 -6.46,-3.18 -11.64,-4.72 -15.5,-4.72 -5.59,0 -10.76,1.13 -15.65,3.38 -4.82,2.3 -9.23,5.47 -13.16,9.69 -3.86,4.13 -6.9,9.15 -8.97,14.88 -2.13,5.69 -3.03,12.24 -2.68,19.5 0.34,9.14 2.48,17 6.53,23.75 4.09,6.83 9.11,12.4 15.12,16.72 5.98,4.38 12.8,7.58 20.43,9.65 7.69,2.1 15.2,2.96 22.64,2.64 12.07,-0.67 23.32,-3.46 33.87,-8.38 10.56,-4.87 19.83,-11.5 27.75,-19.84 8,-8.31 14.27,-18.43 18.82,-30.22 4.52,-11.86 6.75,-25.06 6.75,-39.71 0,-16.98 -3.58,-32.63 -10.71,-46.9 -7.13,-14.34 -15.41,-25.44 -24.85,-33.43l70.65 0 0 -41.19zm-32.12 41.19l25.29 0 0 220.19 72.11 0 0 -220.19 27.78 0 0 -41.19 -125.18 0 0 41.19zm316.11 -41.19l-217.74 0 0 41.19 88.15 0c3.25,2.09 6.7,5.69 10.24,10.69 3.55,5.03 5.48,12.65 5.83,22.74 0.34,4.83 -0.35,9.58 -1.94,14.02 -1.64,4.55 -3.8,8.55 -6.54,12.04 -2.8,3.48 -6.14,6.19 -10.06,8.06 -3.86,1.94 -7.93,2.86 -12.14,2.86 -6.83,-0.32 -12.02,-1.35 -15.58,-3.1 -3.59,-1.73 -7.82,-5.03 -12.68,-9.93l-37.49 50.67c1.57,2.75 4.82,8.06 9.5,15.92 4.69,7.79 10.82,16.68 18.27,26.58 7.45,9.92 16.02,19.94 25.81,29.97 9.75,10.17 20.51,18.9 32.37,26.37 11.86,7.51 24.6,12.9 38.26,16.2 13.64,3.27 28.05,2.89 43.35,-1.34l20.39 -59.45c-24.6,1.72 -46.52,-1.93 -65.71,-10.96 -19.13,-9.03 -34.26,-21.45 -45.29,-37.08 8.78,1.07 18.47,0.78 29.19,-0.78 10.75,-1.57 20.82,-4.96 30.27,-10.17 9.36,-5.22 17.36,-12.87 23.85,-22.98 6.47,-10.05 9.74,-23.25 9.74,-39.63 0,-5.9 -0.65,-12.43 -1.95,-19.54 -1.32,-7.13 -3.77,-14.17 -7.32,-21.16l49.22 0 0 -41.19zm177.74 0l-212.82 0 0 41.19 22.88 0 0 78.27c0,10.48 1.45,20.55 4.41,30.25 2.86,9.81 7.52,18.38 13.86,25.86 6.31,7.48 14.65,13.47 25.09,17.96 10.38,4.54 23.23,6.81 38.47,6.81 26.6,0 46.95,-7.37 61.12,-22.19 14.15,-14.74 21.16,-34.31 21.16,-58.69l0 -78.27 25.83 0 0 -41.19zm-112.47 152.62c-1.64,-2.28 -2.89,-5.21 -3.71,-8.9 -0.83,-3.62 -1.19,-7.72 -1.19,-12.23l0 -13.02 0 -77.28 25.31 0 0 78.78 0 11.52c0,4.16 -0.35,8.05 -0.96,11.68 -0.69,3.68 -1.86,6.72 -3.66,9.17 -1.79,2.47 -4.62,3.66 -8.51,3.66 -3.28,0 -5.69,-1.15 -7.28,-3.38zm75.42 -111.43l25.35 0 0 220.19 72.07 0 0 -220.19 27.75 0 0 -41.19 -125.17 0 0 41.19z"/>
  </g>
 </g>
</svg>
