<?xml version="1.0" encoding="UTF-8"?>
<!DOCTYPE svg PUBLIC "-//W3C//DTD SVG 1.0//EN" "http://www.w3.org/TR/2001/REC-SVG-20010904/DTD/svg10.dtd">
<!-- Creator: CorelDRAW -->
<svg xmlns="http://www.w3.org/2000/svg" xml:space="preserve" width="100%" height="100%" version="1.0" style="shape-rendering:geometricPrecision; text-rendering:geometricPrecision; image-rendering:optimizeQuality; fill-rule:evenodd; clip-rule:evenodd"
viewBox="0 0 1636.38 1622.56"
 xmlns:xlink="http://www.w3.org/1999/xlink"
 xmlns:xodm="http://www.corel.com/coreldraw/odm/2003">
 <defs>
  <style type="text/css">
   <![CDATA[
    .fil0 {fill:black}
   ]]>
  </style>
 </defs>
 <g id="Layer_x0020_1">
  <metadata id="CorelCorpID_0Corel-Layer"/>
  <g id="_2139984670448">
   <path class="fil0" d="M394.91 987.65l846.56 0 0 564.37 -846.56 0 0 -564.37zm985.18 -369.61c49.15,0 88.99,39.84 88.99,88.99 0,49.15 -39.84,88.99 -88.99,88.99 -49.15,0 -88.99,-39.84 -88.99,-88.99 0,-49.15 39.84,-88.99 88.99,-88.99zm-985.18 -547.5l846.56 0 0 388.01 -846.56 0 0 -388.01zm-70.54 388.01c-399.21,0 -317.46,-107.33 -317.46,740.74 0,137.15 90.47,105.81 317.46,105.81l0 317.46 987.64 0 0 -317.46c399.21,0 317.46,107.34 317.46,-740.73 0,-137.16 -90.47,-105.82 -317.46,-105.82l0 -458.55 -987.64 0 0 458.55z"/>
   <polygon class="fil0" points="500.73,1446.2 1135.65,1446.2 1135.65,1375.65 500.73,1375.65 "/>
   <polygon class="fil0" points="500.73,1164.01 1135.65,1164.01 1135.65,1093.47 500.73,1093.47 "/>
   <polygon class="fil0" points="500.73,1305.1 994.56,1305.1 994.56,1234.56 500.73,1234.56 "/>
  </g>
 </g>
</svg>
